<?xml version="1.0" encoding="UTF-8" standalone="no"?>
<svg
   xmlns="http://www.w3.org/2000/svg"
   version="1.1"
   width="247.7"
   height="32.0"
   viewBox="0 0 247.7 32.0">
<!-- SIMPLE (#ffffff) — weight: 400, h_scale: 0.936736 -->
<g style="fill:#ffffff;stroke:none" transform="translate(0,24.000) scale(0.029976,-0.032000)">
  <path transform="translate(0,0)" d="M477.99920653812586 594.002856462747Q441.49964294215664 613.0025390779973 397.24958343251603 627.00245973181Q352.9995239228755 641.0023803856225 311.49924621121954 641.0023803856225Q252.99833373006427 641.0023803856225 218.49773863365866 614.0017456161231Q183.99714353725304 587.0011108466239 183.99714353725304 541.5005157502183Q183.99714353725304 508.4999603269063 206.24728239308104 484.99972228834406Q228.497421248909 461.4994842497818 264.2476791240181 444.24938506704757Q299.9979369991272 426.9992858843133 339.49829405697056 411.99912719193844Q372.99841307625167 399.4990875188447 405.9985320955328 383.2491073553916Q438.9986511148139 366.99912719193844 465.498770134095 343.249186701579Q491.9988891533762 319.49924621121954 507.7489486630168 284.24934539395383Q523.4990081726573 248.9994445766881 523.4990081726573 197.49956359596922Q523.4990081726573 139.9994445766881 494.999047845751 93.24954375942235Q466.4990875188447 46.499642942156626 413.49932555740696 19.249821471078313Q360.4995635959692 -8 286.5001983654685 -8Q238.99976196143774 -8 195.49976196143774 2.750178528921685Q151.99976196143774 13.50035705784337 114.75013885582797 31.000357057843374Q77.5005157502182 48.500357057843374 48.50130921209236 67.99976196143776L91.99968261525034 144.49686582559707Q115.99952392287551 126.9969848448782 146.99956359596922 111.74692533523765Q177.99960326906293 96.49686582559708 211.99984130762516 86.99674680631597Q246.00007934618742 77.49662778703484 277.5005157502182 77.49662778703484Q312.00119019281124 77.49662778703484 345.5017456161231 89.74700468142507Q379.00230103943505 101.9973815758153 401.0026580972784 128.24803618186147Q423.0030151551218 154.49869078790763 423.0030151551218 196.9995239228755Q423.0030151551218 233.50067444259304 403.25259858763786 258.25121002935805Q383.50218202015395 283.0017456161231 351.7516067602952 300.5019439815917Q320.0010315004364 318.0021423470602 283.5004364040308 331.50234071252873Q249.50043640403078 344.50234071252873 214.5005157502182 360.25224152979445Q179.50059509640562 376.0021423470602 149.7507339522336 398.5019836546854Q120.00087280806157 421.00182496231054 102.00099182734269 453.7515274141077Q84.00111084662382 486.5012298659049 84.00111084662382 533.5007537887805Q84.00111084662382 591.0002380385622 111.25101166388954 633.4998809807189Q138.50091248115527 675.9995239228755 186.75061493295246 700.4992858843132Q235.00031738474965 724.999047845751 297.4998809807189 726.9989684995636Q366.99833373006425 726.9989684995636 420.4981750376894 709.9992858843133Q473.9980163453146 692.999603269063 514.9977783067524 668.4999603269063Z"/>
  <path transform="translate(582,0)" d="M104.00071411568675 722.9989684995636H200.9969054986908V0H104.00071411568675Z"/>
  <path transform="translate(887,0)" d="M104.00071411568675 0V745.9984130762517H105.00071411568675L484.498373403158 207.50170594302944L443 216.00126953899866L821.4976592874713 745.9984130762517H822.9976196143775V0H726.5014679044672V526.0069031183052L733.0012695389986 476.5089264460843L460.4994049035944 91.00642704118067H458.4994049035944L181.49773863365866 476.5089264460843L197.99706419106562 522.0070618106799V0Z"/>
  <path transform="translate(1814,0)" d="M297.498373403158 722.9989684995636Q375.99738157581527 722.9989684995636 432.24684598905026 696.4992858843133Q488.4963104022852 669.999603269063 518.7460922002698 620.0000396730937Q548.9958739982544 570.0004760771245 548.9958739982544 498.5008331349679Q548.9958739982544 456.0010315004364 535.995913671348 414.5013488851861Q522.9959533444418 373.00166626993575 494.4960326906292 339.5019439815917Q465.9961120368166 306.00222169324763 419.99638974847255 285.7524002221693Q373.99666746012855 265.502578751091 307.997143537253 265.502578751091H200.9969054986908V0H104.00071411568675V722.9989684995636ZM307.49718321034675 359.4988494802825Q349.9979369991272 359.4988494802825 378.24843291279853 373.499047845751Q406.49892882646986 387.49924621121954 422.4992065381258 408.9995635959692Q438.4994842497818 430.4998809807189 445.49960326906296 454.00023803856226Q452.49972228834406 477.5005950964056 452.49972228834406 496.5009918273427Q452.49972228834406 519.001904308498 445.24942474014125 542.2522812028882Q437.99912719193844 565.5026580972784 421.7487106244545 585.252717606919Q405.49829405697056 605.0027771165595 378.747956835674 617.252717606919Q351.9976196143775 629.5026580972784 312.9975402681901 629.5026580972784H200.9969054986908V359.4988494802825Z"/>
  <path transform="translate(2409,0)" d="M104.00071411568675 722.9989684995636H200.9969054986908V93.49631040228518H568.4986114417202V0H104.00071411568675Z"/>
  <path transform="translate(3031,0)" d="M104.00071411568675 722.9989684995636H573.9981750376894V629.5026580972784H200.9969054986908V409.99769896056495H533.9982543838769V316.50138855827976H200.9969054986908V93.49631040228518H587.9981750376894V0H104.00071411568675Z"/>
</g>
<!-- MOTION (#ff6900) — weight: 400, h_scale: 0.973877 -->
<g style="fill:#ff6900;stroke:none" transform="translate(111.680,24.000) scale(0.031164,-0.032000)">
  <path transform="translate(0,0)" d="M104.00071411568675 0V745.9984130762517H105.00071411568675L484.498373403158 207.50170594302944L443 216.00126953899866L821.4976592874713 745.9984130762517H822.9976196143775V0H726.5014679044672V526.0069031183052L733.0012695389986 476.5089264460843L460.4994049035944 91.00642704118067H458.4994049035944L181.49773863365866 476.5089264460843L197.99706419106562 522.0070618106799V0Z"/>
  <path transform="translate(927,0)" d="M59.00071411568674 360.7380190761693Q59.00071411568674 435.9994445766881 87.50067444259304 502.74934539395383Q116.00063476949933 569.4992462112195 166.75057525985875 620.9991668650321Q217.5005157502182 672.4990875188447 284.3511439836467 701.7490280092042Q351.2017722170752 730.9989684995636 427.6009257816313 730.9989684995636Q503.5001190192811 730.9989684995636 570.4257979749051 701.7280586035583Q637.3514769305291 672.457148707553 688.6756194459834 620.9781974593863Q739.9997619614378 569.4992462112195 768.9997222883441 502.74934539395383Q797.9996826152503 435.9994445766881 797.9996826152503 360.6002116659446Q797.9996826152503 284.20105810138847 768.9997222883441 217.35042986795997Q739.9997619614378 150.49980163453145 688.749861144172 99.74986114417202Q637.4999603269063 48.99992065381259 570.5324163425746 20.499960326906294Q503.5648723582429 -8 427.53257503494945 -8Q351.0003173847497 -8 284.25041656748397 19.999920653812584Q217.5005157502182 47.99984130762517 166.75057525985875 98.2497421248909Q116.00063476949933 148.49964294215664 87.50067444259304 215.4810108872502Q59.00071411568674 282.46237883234375 59.00071411568674 360.7380190761693ZM158.99674680631597 360.21976857057996Q158.99674680631597 302.99880980718876 179.84423461785997 253.27601452916855Q200.69172242940394 203.55321925114833 237.8449487335467 165.77502270182586Q274.99817503768946 127.99682615250337 324.03694110150684 106.74656827739427Q373.07570716532416 85.49631040228518 429.5743937133592 85.49631040228518Q486.0007141156867 85.49631040228518 534.7513687217329 106.74656827739427Q583.502023327779 127.99682615250337 619.9383447956407 165.80396990979204Q656.3746662635023 203.61111366708073 677.1891580940617 253.37219396208855Q698.0036499246211 303.13327425709633 698.0036499246211 360.5485077471439Q698.0036499246211 418.0000793461874 677.0033722129651 468.25065460604617Q656.0030945013092 518.501229865905 619.2097630212365 556.5050449163755Q582.4164315411638 594.5088599668461 533.4236645287585 616.0057590320623Q484.43089751635335 637.5026580972784 428.00015869237484 637.5026580972784Q370.7590073819601 637.5026580972784 321.86552397098086 615.8450831374639Q272.97204056000163 594.1875081776493 236.2346515582679 555.8443293486835Q199.49726255653417 517.5011505197175 179.24700468142507 467.2534490510834Q158.99674680631597 417.0057475824494 158.99674680631597 360.21976857057996Z"/>
  <path transform="translate(1784,0)" d="M50.500436404030786 722.9989684995636H530.9992065381258V629.5026580972784H336.9980163453146V0H240.00182496231056V629.5026580972784H50.500436404030786Z"/>
  <path transform="translate(2365,0)" d="M104.00071411568675 722.9989684995636H200.9969054986908V0H104.00071411568675Z"/>
  <path transform="translate(2670,0)" d="M59.00071411568674 360.7380190761693Q59.00071411568674 435.9994445766881 87.50067444259304 502.74934539395383Q116.00063476949933 569.4992462112195 166.75057525985875 620.9991668650321Q217.5005157502182 672.4990875188447 284.3511439836467 701.7490280092042Q351.2017722170752 730.9989684995636 427.6009257816313 730.9989684995636Q503.5001190192811 730.9989684995636 570.4257979749051 701.7280586035583Q637.3514769305291 672.457148707553 688.6756194459834 620.9781974593863Q739.9997619614378 569.4992462112195 768.9997222883441 502.74934539395383Q797.9996826152503 435.9994445766881 797.9996826152503 360.6002116659446Q797.9996826152503 284.20105810138847 768.9997222883441 217.35042986795997Q739.9997619614378 150.49980163453145 688.749861144172 99.74986114417202Q637.4999603269063 48.99992065381259 570.5324163425746 20.499960326906294Q503.5648723582429 -8 427.53257503494945 -8Q351.0003173847497 -8 284.25041656748397 19.999920653812584Q217.5005157502182 47.99984130762517 166.75057525985875 98.2497421248909Q116.00063476949933 148.49964294215664 87.50067444259304 215.4810108872502Q59.00071411568674 282.46237883234375 59.00071411568674 360.7380190761693ZM158.99674680631597 360.21976857057996Q158.99674680631597 302.99880980718876 179.84423461785997 253.27601452916855Q200.69172242940394 203.55321925114833 237.8449487335467 165.77502270182586Q274.99817503768946 127.99682615250337 324.03694110150684 106.74656827739427Q373.07570716532416 85.49631040228518 429.5743937133592 85.49631040228518Q486.0007141156867 85.49631040228518 534.7513687217329 106.74656827739427Q583.502023327779 127.99682615250337 619.9383447956407 165.80396990979204Q656.3746662635023 203.61111366708073 677.1891580940617 253.37219396208855Q698.0036499246211 303.13327425709633 698.0036499246211 360.5485077471439Q698.0036499246211 418.0000793461874 677.0033722129651 468.25065460604617Q656.0030945013092 518.501229865905 619.2097630212365 556.5050449163755Q582.4164315411638 594.5088599668461 533.4236645287585 616.0057590320623Q484.43089751635335 637.5026580972784 428.00015869237484 637.5026580972784Q370.7590073819601 637.5026580972784 321.86552397098086 615.8450831374639Q272.97204056000163 594.1875081776493 236.2346515582679 555.8443293486835Q199.49726255653417 517.5011505197175 179.24700468142507 467.2534490510834Q158.99674680631597 417.0057475824494 158.99674680631597 360.21976857057996Z"/>
  <path transform="translate(3527,0)" d="M730.4981353645958 -23.4994842497818 171.4980560184083 544.0055542331191 199.49686582559707 537.0069031183052 201.49678647940965 0H104.00071411568675V744.9984130762517H108.50059509640562L661.5011505197175 175.99309688169484L639.001904308498 180.9923827660081L637.0019836546854 722.9989684995636H733.4980560184083V-23.4994842497818Z"/>
</g>
</svg>