<?xml version="1.0" encoding="UTF-8" standalone="no"?>
<svg xmlns="http://www.w3.org/2000/svg" version="1.1"
     width="707" height="100" viewBox="0 0 707 100">

  <!-- Logo circle (left, 100x100) -->
  <svg x="0" y="0" width="100" height="100" viewBox="0 0 512 512">
    <circle cx="256" cy="256" r="220" fill="#000000" stroke="#ffffff" stroke-width="16"/>
    <g transform="translate(256, 256) scale(8.125) translate(-43, -160)">
      <path d="m 33.530148,163.53827 a 9.3221491,9.3221491 0 0 1 -2.205948,-3.96552 13.983223,13.983223 0 0 1 9.887632,-17.12587 21.524999,21.524999 0 0 1 16.549754,2.27683 1.7803804,1.7803804 0 0 1 -1.816132,3.06279 17.964256,17.964256 0 0 0 -13.812034,-1.90022 10.422479,10.422479 0 0 0 -7.369806,12.76488 5.7614049,5.7614049 0 0 0 1.363351,2.45082 1.7803772,1.7803772 0 1 1 -2.596817,2.43629 z" fill="#ffffff"/>
      <path d="m 46.369631,169.57847 a 9.3221491,9.3221491 0 0 1 -3.965502,2.20595 13.983223,13.983223 0 0 1 -17.125881,-9.88764 21.524999,21.524999 0 0 1 2.276847,-16.54975 1.7803766,1.7803766 0 0 1 3.06277,1.81615 17.964256,17.964256 0 0 0 -1.900202,13.81201 10.422479,10.422479 0 0 0 12.764878,7.36983 5.7614049,5.7614049 0 0 0 2.450814,-1.36336 1.780372,1.780372 0 1 1 2.436276,2.59681 z" fill="#ff6900"/>
      <path d="m 52.409852,156.73899 a 9.3221491,9.3221491 0 0 1 2.205949,3.96551 13.983223,13.983223 0 0 1 -9.887633,17.12588 21.524999,21.524999 0 0 1 -16.549754,-2.27685 1.7803723,1.7803723 0 0 1 1.816133,-3.06277 17.964256,17.964256 0 0 0 13.812033,1.9002 10.422479,10.422479 0 0 0 7.369806,-12.76488 5.7614049,5.7614049 0 0 0 -1.363351,-2.45082 1.780372,1.780372 0 1 1 2.596817,-2.43627 z" fill="#ffffff"/>
      <path d="m 39.570369,150.69876 a 9.3221491,9.3221491 0 0 1 3.965502,-2.20595 13.983223,13.983223 0 0 1 17.125881,9.88764 21.524999,21.524999 0 0 1 -2.276847,16.54976 1.780372,1.780372 0 0 1 -3.06277,-1.81613 17.964256,17.964256 0 0 0 1.900202,-13.81204 10.422479,10.422479 0 0 0 -12.764878,-7.3698 5.7614049,5.7614049 0 0 0 -2.450814,1.36334 1.7803735,1.7803735 0 1 1 -2.436276,-2.59682 z" fill="#ffffff"/>
    </g>
  </svg>

  <!-- SIMPLE (#ffffff) -->
  <g style="fill:#ffffff;stroke:none" transform="translate(112.500,75.000) scale(0.070028,-0.070028)">
    <path transform="translate(0,0)" d="M502 191Q502 127 471.0 82.5Q440 38 382.5 14.0Q325 -10 247 -10Q207 -10 170.5 -6.0Q134 -2 104.0 5.5Q74 13 51 24V110Q87 94 140.5 81.0Q194 68 251 68Q304 68 340.0 82.0Q376 96 394.0 122.0Q412 148 412 183Q412 218 397.0 242.0Q382 266 345.5 286.5Q309 307 244 330Q198 347 163.5 366.5Q129 386 106.0 411.0Q83 436 71.5 468.0Q60 500 60 542Q60 599 89.0 639.5Q118 680 169.5 702.0Q221 724 288 724Q347 724 396.0 713.0Q445 702 485 684L457 607Q420 623 376.5 634.0Q333 645 286 645Q241 645 211.0 632.0Q181 619 166.0 595.5Q151 572 151 541Q151 505 166.0 481.0Q181 457 215.0 438.0Q249 419 307 397Q370 374 413.5 347.5Q457 321 479.5 284.0Q502 247 502 191Z"/>
    <path transform="translate(629,0)" d="M298 0H40V52L124 71V642L40 662V714H298V662L214 642V71L298 52Z"/>
    <path transform="translate(1048,0)" d="M412 0 177 626H173Q175 606 176.5 575.0Q178 544 179.0 507.5Q180 471 180 433V0H97V714H230L450 129H454L678 714H810V0H721V439Q721 474 722.0 508.5Q723 543 725.0 573.5Q727 604 728 625H724L486 0Z"/>
    <path transform="translate(2035,0)" d="M286 714Q426 714 490.0 659.0Q554 604 554 504Q554 460 539.5 419.5Q525 379 492.0 347.0Q459 315 404.0 296.5Q349 278 269 278H187V0H97V714ZM278 637H187V355H259Q327 355 372.0 369.5Q417 384 439.0 416.0Q461 448 461 500Q461 569 417.0 603.0Q373 637 278 637Z"/>
    <path transform="translate(2720,0)" d="M97 0V714H187V80H499V0Z"/>
    <path transform="translate(3324,0)" d="M496 0H97V714H496V635H187V412H478V334H187V79H496Z"/>
  </g>
  <!-- MOTION (#ff6900) -->
  <g style="fill:#ff6900;stroke:none" transform="translate(389.811,75.000) scale(0.070028,-0.070028)">
    <path transform="translate(0,0)" d="M412 0 177 626H173Q175 606 176.5 575.0Q178 544 179.0 507.5Q180 471 180 433V0H97V714H230L450 129H454L678 714H810V0H721V439Q721 474 722.0 508.5Q723 543 725.0 573.5Q727 604 728 625H724L486 0Z"/>
    <path transform="translate(987,0)" d="M720 358Q720 275 699.0 207.5Q678 140 636.5 91.0Q595 42 533.5 16.0Q472 -10 391 -10Q307 -10 245.0 16.5Q183 43 142.0 91.5Q101 140 81.0 208.0Q61 276 61 359Q61 469 97.0 551.0Q133 633 206.5 679.0Q280 725 392 725Q499 725 572.0 679.5Q645 634 682.5 551.5Q720 469 720 358ZM156 358Q156 268 181.0 203.0Q206 138 258.5 103.0Q311 68 391 68Q472 68 523.5 103.0Q575 138 600.0 203.0Q625 268 625 358Q625 493 569.0 569.5Q513 646 392 646Q311 646 258.5 611.5Q206 577 181.0 512.5Q156 448 156 358Z"/>
    <path transform="translate(1848,0)" d="M323 0H233V635H10V714H545V635H323Z"/>
    <path transform="translate(2484,0)" d="M298 0H40V52L124 71V642L40 662V714H298V662L214 642V71L298 52Z"/>
    <path transform="translate(2903,0)" d="M720 358Q720 275 699.0 207.5Q678 140 636.5 91.0Q595 42 533.5 16.0Q472 -10 391 -10Q307 -10 245.0 16.5Q183 43 142.0 91.5Q101 140 81.0 208.0Q61 276 61 359Q61 469 97.0 551.0Q133 633 206.5 679.0Q280 725 392 725Q499 725 572.0 679.5Q645 634 682.5 551.5Q720 469 720 358ZM156 358Q156 268 181.0 203.0Q206 138 258.5 103.0Q311 68 391 68Q472 68 523.5 103.0Q575 138 600.0 203.0Q625 268 625 358Q625 493 569.0 569.5Q513 646 392 646Q311 646 258.5 611.5Q206 577 181.0 512.5Q156 448 156 358Z"/>
    <path transform="translate(3764,0)" d="M663 0H558L176 593H172Q174 570 175.5 538.5Q177 507 178.5 471.5Q180 436 180 399V0H97V714H201L582 123H586Q585 139 583.5 171.0Q582 203 580.5 241.0Q579 279 579 311V714H663Z"/>
  </g>
</svg>