<?xml version="1.0" encoding="UTF-8" standalone="no"?>
<svg
   xmlns="http://www.w3.org/2000/svg"
   version="1.1"
   width="288.7"
   height="50.0"
   viewBox="0 0 288.7 50.0">
<!-- SIMPLE (#ffffff) -->
<g style="fill:#ffffff;stroke:none" transform="translate(0,39.000) scale(0.035014,-0.035014)">
  <path transform="translate(0,0)" d="M496 186Q496 122 464.0 78.5Q432 35 376.0 12.5Q320 -10 249 -10Q206 -10 170.5 -5.5Q135 -1 106.0 6.0Q77 13 54 22V79Q92 64 142.5 53.0Q193 42 252 42Q307 42 348.5 57.5Q390 73 413.5 104.5Q437 136 437 182Q437 225 417.5 252.0Q398 279 357.5 299.5Q317 320 254 341Q209 357 173.5 374.0Q138 391 113.0 414.0Q88 437 75.0 468.5Q62 500 62 543Q62 602 92.0 642.0Q122 682 173.5 703.0Q225 724 290 724Q343 724 389.5 714.5Q436 705 478 686L459 636Q417 654 374.0 663.0Q331 672 288 672Q239 672 201.5 657.5Q164 643 142.5 614.5Q121 586 121 544Q121 499 141.0 471.0Q161 443 199.5 424.0Q238 405 292 386Q356 365 401.5 340.5Q447 316 471.5 279.5Q496 243 496 186Z"/>
  <path transform="translate(626,0)" d="M261 0H51V36L127 47V666L51 678V714H261V678L185 666V47L261 36Z"/>
  <path transform="translate(1017,0)" d="M410 0 154 653H151Q152 635 153.0 612.5Q154 590 154.5 565.5Q155 541 155 515V0H100V714H188L434 89H437L686 714H772V0H714V521Q714 543 714.5 566.0Q715 589 716.5 611.0Q718 633 718 652H715L457 0Z"/>
  <path transform="translate(1969,0)" d="M278 714Q408 714 471.5 664.0Q535 614 535 512Q535 461 518.5 420.0Q502 379 468.5 350.5Q435 322 383.5 307.0Q332 292 263 292H158V0H100V714ZM272 663H158V343H257Q326 343 375.0 358.5Q424 374 449.5 410.5Q475 447 475 509Q475 589 426.0 626.0Q377 663 272 663Z"/>
  <path transform="translate(2638,0)" d="M100 0V714H158V53H493V0Z"/>
  <path transform="translate(3233,0)" d="M492 0H100V714H492V662H158V401H473V349H158V52H492Z"/>
</g>
<!-- MOTION (#ff6900) -->
<g style="fill:#ff6900;stroke:none" transform="translate(135.364,39.000) scale(0.035014,-0.035014)">
  <path transform="translate(0,0)" d="M410 0 154 653H151Q152 635 153.0 612.5Q154 590 154.5 565.5Q155 541 155 515V0H100V714H188L434 89H437L686 714H772V0H714V521Q714 543 714.5 566.0Q715 589 716.5 611.0Q718 633 718 652H715L457 0Z"/>
  <path transform="translate(952,0)" d="M705 358Q705 276 685.0 209.0Q665 142 624.5 92.5Q584 43 524.0 16.5Q464 -10 384 -10Q303 -10 242.5 17.0Q182 44 142.0 93.0Q102 142 82.0 209.5Q62 277 62 359Q62 468 98.5 550.5Q135 633 207.5 679.0Q280 725 387 725Q490 725 561.0 680.5Q632 636 668.5 554.0Q705 472 705 358ZM123 359Q123 264 151.0 192.5Q179 121 237.5 81.5Q296 42 384 42Q474 42 531.5 81.0Q589 120 616.5 191.5Q644 263 644 358Q644 507 579.5 590.0Q515 673 387 673Q298 673 239.0 634.0Q180 595 151.5 524.0Q123 453 123 359Z"/>
  <path transform="translate(1800,0)" d="M294 0H236V662H6V714H524V662H294Z"/>
  <path transform="translate(2411,0)" d="M261 0H51V36L127 47V666L51 678V714H261V678L185 666V47L261 36Z"/>
  <path transform="translate(2802,0)" d="M705 358Q705 276 685.0 209.0Q665 142 624.5 92.5Q584 43 524.0 16.5Q464 -10 384 -10Q303 -10 242.5 17.0Q182 44 142.0 93.0Q102 142 82.0 209.5Q62 277 62 359Q62 468 98.5 550.5Q135 633 207.5 679.0Q280 725 387 725Q490 725 561.0 680.5Q632 636 668.5 554.0Q705 472 705 358ZM123 359Q123 264 151.0 192.5Q179 121 237.5 81.5Q296 42 384 42Q474 42 531.5 81.0Q589 120 616.5 191.5Q644 263 644 358Q644 507 579.5 590.0Q515 673 387 673Q298 673 239.0 634.0Q180 595 151.5 524.0Q123 453 123 359Z"/>
  <path transform="translate(3650,0)" d="M629 0H567L153 624H150Q152 598 152.5 570.0Q153 542 154.0 512.5Q155 483 155 451V0H100V714H162L575 92H578Q577 113 576.0 142.0Q575 171 574.5 202.5Q574 234 574 261V714H629Z"/>
</g>
</svg>